<svg width="223" height="209" viewBox="0 0 223 209" fill="none" xmlns="http://www.w3.org/2000/svg">
<path d="M0.810059 155.279V178.279H6.36806V153.017L0.810059 155.279Z" fill="#B2B3B4"/>
<path d="M68.626 155.278L74.184 153.017V178.278H68.626V155.278Z" fill="#B2B3B4"/>
<path d="M12.6841 153.017H17.8091L29.6451 168.572V153.017H35.1301V178.28H30.4031L18.1691 162.219V178.28H12.6841V153.017Z" fill="#B2B3B4"/>
<path d="M41.1941 153.019H51.0471C58.9861 153.019 64.4721 158.467 64.4721 165.578V165.649C64.4721 172.76 58.9871 178.28 51.0471 178.28H41.1941V153.019ZM46.7541 158.034V173.264H51.0491C52.0578 173.321 53.0672 173.165 54.0119 172.806C54.9566 172.448 55.8156 171.896 56.5333 171.185C57.2509 170.474 57.8114 169.62 58.1782 168.678C58.5451 167.737 58.7103 166.729 58.6631 165.72V165.648C58.7116 164.635 58.5479 163.624 58.1825 162.678C57.817 161.732 57.2579 160.873 56.5409 160.156C55.824 159.439 54.9651 158.88 54.0193 158.515C53.0736 158.149 52.0618 157.985 51.0491 158.034H46.7541Z" fill="#B2B3B4"/>
<path d="M80.825 165.76V165.691C80.7953 164.017 81.1049 162.354 81.7353 160.803C82.3656 159.251 83.3036 157.844 84.4927 156.665C85.6818 155.486 87.0974 154.56 88.654 153.943C90.2107 153.326 91.8762 153.031 93.55 153.075C95.328 152.986 97.1045 153.276 98.7622 153.925C100.42 154.573 101.921 155.566 103.167 156.838L99.75 160.776C97.833 159.069 95.987 158.023 93.512 158.023C89.399 158.023 86.437 161.437 86.437 165.623V165.694C86.437 169.875 89.331 173.36 93.512 173.36C96.3 173.36 98.012 172.279 99.924 170.503L103.338 173.952C102.113 175.391 100.575 176.532 98.8418 177.286C97.1088 178.041 95.2264 178.391 93.338 178.308C91.6843 178.335 90.0421 178.029 88.5094 177.407C86.9767 176.786 85.5849 175.862 84.417 174.691C83.2491 173.52 82.3292 172.126 81.7121 170.591C81.0949 169.057 80.7932 167.414 80.825 165.76Z" fill="#B2B3B4"/>
<path d="M116.837 152.835H121.962L132.79 178.278H126.977L124.668 172.612H113.987L111.677 178.278H106.011L116.837 152.835ZM122.685 167.705L119.328 159.513L115.971 167.705H122.685Z" fill="#B2B3B4"/>
<path d="M139.322 158.142H131.635V153.017H152.566V158.142H144.88V178.28H139.322V158.142Z" fill="#B2B3B4"/>
<path d="M168.305 165.747V165.679C168.304 163.991 168.643 162.321 169.3 160.766C169.957 159.212 170.92 157.805 172.131 156.63C173.342 155.455 174.777 154.535 176.351 153.925C177.924 153.315 179.604 153.027 181.291 153.079C188.81 153.079 194.209 158.679 194.209 165.612V165.683C194.21 167.371 193.872 169.041 193.215 170.596C192.557 172.15 191.595 173.557 190.383 174.732C189.172 175.907 187.737 176.827 186.164 177.437C184.59 178.047 182.91 178.335 181.223 178.283C173.704 178.283 168.305 172.683 168.305 165.75V165.747ZM188.605 165.75V165.679C188.64 164.687 188.475 163.698 188.12 162.772C187.765 161.845 187.228 160.999 186.539 160.284C185.851 159.569 185.025 159 184.112 158.611C183.2 158.222 182.218 158.02 181.225 158.018C180.24 158.014 179.265 158.21 178.358 158.594C177.451 158.977 176.631 159.541 175.947 160.25C175.264 160.96 174.732 161.8 174.382 162.721C174.033 163.642 173.873 164.624 173.914 165.608V165.679C173.879 166.671 174.045 167.659 174.4 168.586C174.755 169.512 175.292 170.358 175.981 171.073C176.669 171.787 177.495 172.356 178.407 172.745C179.32 173.134 180.302 173.336 181.294 173.338C182.279 173.342 183.255 173.146 184.162 172.762C185.069 172.379 185.889 171.815 186.572 171.106C187.255 170.396 187.788 169.556 188.137 168.635C188.487 167.714 188.646 166.732 188.605 165.748" fill="#B2B3B4"/>
<path d="M199.627 153.017H204.752L216.588 168.572V153.017H222.073V178.28H217.346L205.112 162.219V178.28H199.627V153.017Z" fill="#B2B3B4"/>
<path d="M156.638 155.278L162.196 153.017V178.278H156.638V155.278Z" fill="#B2B3B4"/>
<path d="M65.8472 183.052H76.1902C82.2292 183.052 85.8812 186.596 85.8812 191.803V191.875C85.8812 197.769 81.3242 200.775 75.6482 200.775H71.4162V208.369H65.8472V183.052ZM75.8282 195.817C78.6132 195.817 80.2402 194.154 80.2402 191.983V191.908C80.2402 189.408 78.5052 188.074 75.7212 188.074H71.4212V195.813L75.8282 195.817Z" fill="white"/>
<path d="M90.0042 183.052H95.5732V203.308H108.193V208.37H90.0042V183.052Z" fill="white"/>
<path d="M111.439 197.292V183.052H116.921V197.152C116.921 201.246 118.914 203.312 122.297 203.312C125.68 203.312 127.673 201.319 127.673 197.331V183.052H133.155V197.114C133.155 204.661 128.92 208.365 122.225 208.365C115.53 208.365 111.44 204.665 111.44 197.292" fill="white"/>
<path d="M137.53 204.457L140.73 200.619C142.743 202.469 145.355 203.531 148.088 203.612C150.341 203.612 151.643 202.732 151.643 201.288V201.217C151.643 199.844 150.798 199.105 146.68 198.083C141.68 196.851 138.512 195.408 138.512 190.551V190.48C138.512 186.009 142.069 183.052 147.137 183.052C150.46 182.998 153.698 184.107 156.291 186.186L153.473 190.269C151.632 188.83 149.398 187.983 147.066 187.839C144.954 187.839 143.901 188.755 143.901 189.988V190.057C143.901 191.712 144.954 192.171 149.215 193.297C154.215 194.634 157.032 196.397 157.032 200.69V200.761C157.032 205.656 153.298 208.401 147.982 208.401C144.128 208.438 140.399 207.031 137.53 204.457Z" fill="white"/>
<path d="M93.9821 43.125L128.903 28.88V120.205H93.9821V43.125ZM141.263 6.264V0L66.2471 30.6V135.341H156.638V0L141.263 6.264Z" fill="white"/>
</svg>
