<svg width="711" height="177" viewBox="0 0 711 177" fill="none" xmlns="http://www.w3.org/2000/svg">
<g style="mix-blend-mode:overlay">
<g style="mix-blend-mode:overlay">
<g style="mix-blend-mode:overlay">
<path d="M465.201 66.6063L506.884 49.5999V158.626H465.201V66.6063ZM521.643 22.6022V15.1243L432.091 51.6495V176.693H540V15.1243L521.643 22.6022Z" fill="#182435"/>
</g>
<g style="mix-blend-mode:overlay">
<g style="mix-blend-mode:overlay">
<g style="mix-blend-mode:overlay" opacity="0.33">
<g style="mix-blend-mode:overlay" opacity="0.33">
<g style="mix-blend-mode:overlay" opacity="0.33">
<g style="mix-blend-mode:overlay" opacity="0.33">
<path d="M518.662 59.3724H515.699V66.888H518.662V59.3724Z" fill="white"/>
</g>
</g>
</g>
</g>
<g style="mix-blend-mode:overlay" opacity="0.33">
<g style="mix-blend-mode:overlay" opacity="0.33">
<g style="mix-blend-mode:overlay" opacity="0.33">
<g style="mix-blend-mode:overlay" opacity="0.33">
<path d="M526.351 30.6246H523.388V38.1402H526.351V30.6246Z" fill="white"/>
</g>
</g>
</g>
</g>
<g style="mix-blend-mode:overlay" opacity="0.33">
<g style="mix-blend-mode:overlay" opacity="0.33">
<g style="mix-blend-mode:overlay" opacity="0.33">
<g style="mix-blend-mode:overlay" opacity="0.33">
<path d="M526.351 44.9991H523.388V52.5146H526.351V44.9991Z" fill="white"/>
</g>
</g>
</g>
</g>
<g style="mix-blend-mode:overlay" opacity="0.33">
<g style="mix-blend-mode:overlay" opacity="0.33">
<g style="mix-blend-mode:overlay" opacity="0.33">
<g style="mix-blend-mode:overlay" opacity="0.33">
<path d="M526.351 59.3724H523.388V66.888H526.351V59.3724Z" fill="white"/>
</g>
</g>
</g>
</g>
<g style="mix-blend-mode:overlay" opacity="0.33">
<g style="mix-blend-mode:overlay" opacity="0.33">
<g style="mix-blend-mode:overlay" opacity="0.33">
<g style="mix-blend-mode:overlay" opacity="0.33">
<path d="M533.278 30.6246H530.315V38.1402H533.278V30.6246Z" fill="white"/>
</g>
</g>
</g>
</g>
<g style="mix-blend-mode:overlay" opacity="0.33">
<g style="mix-blend-mode:overlay" opacity="0.33">
<g style="mix-blend-mode:overlay" opacity="0.33">
<g style="mix-blend-mode:overlay" opacity="0.33">
<path d="M533.278 44.9991H530.315V52.5146H533.278V44.9991Z" fill="white"/>
</g>
</g>
</g>
</g>
<g style="mix-blend-mode:overlay" opacity="0.33">
<g style="mix-blend-mode:overlay" opacity="0.33">
<g style="mix-blend-mode:overlay" opacity="0.33">
<g style="mix-blend-mode:overlay" opacity="0.33">
<path d="M533.278 59.3724H530.315V66.888H533.278V59.3724Z" fill="white"/>
</g>
</g>
</g>
</g>
<g style="mix-blend-mode:overlay" opacity="0.33">
<g style="mix-blend-mode:overlay" opacity="0.33">
<g style="mix-blend-mode:overlay" opacity="0.33">
<g style="mix-blend-mode:overlay" opacity="0.33">
<path d="M439.634 57.9041H436.671V65.4197H439.634V57.9041Z" fill="white"/>
</g>
</g>
</g>
</g>
<g style="mix-blend-mode:overlay" opacity="0.33">
<g style="mix-blend-mode:overlay" opacity="0.33">
<g style="mix-blend-mode:overlay" opacity="0.33">
<g style="mix-blend-mode:overlay" opacity="0.33">
<path d="M439.634 72.2796H436.671V79.7952H439.634V72.2796Z" fill="white"/>
</g>
</g>
</g>
</g>
<g style="mix-blend-mode:overlay" opacity="0.33">
<g style="mix-blend-mode:overlay" opacity="0.33">
<g style="mix-blend-mode:overlay" opacity="0.33">
<g style="mix-blend-mode:overlay" opacity="0.33">
<path d="M439.634 86.653H436.671V94.1685H439.634V86.653Z" fill="white"/>
</g>
</g>
</g>
</g>
<g style="mix-blend-mode:overlay" opacity="0.33">
<g style="mix-blend-mode:overlay" opacity="0.33">
<g style="mix-blend-mode:overlay" opacity="0.33">
<g style="mix-blend-mode:overlay" opacity="0.33">
<path d="M447.271 57.9041H444.308V65.4197H447.271V57.9041Z" fill="white"/>
</g>
</g>
</g>
</g>
<g style="mix-blend-mode:overlay" opacity="0.33">
<g style="mix-blend-mode:overlay" opacity="0.33">
<g style="mix-blend-mode:overlay" opacity="0.33">
<g style="mix-blend-mode:overlay" opacity="0.33">
<path d="M447.271 72.2796H444.308V79.7952H447.271V72.2796Z" fill="white"/>
</g>
</g>
</g>
</g>
<g style="mix-blend-mode:overlay" opacity="0.33">
<g style="mix-blend-mode:overlay" opacity="0.33">
<g style="mix-blend-mode:overlay" opacity="0.33">
<g style="mix-blend-mode:overlay" opacity="0.33">
<path d="M447.271 86.653H444.308V94.1685H447.271V86.653Z" fill="white"/>
</g>
</g>
</g>
</g>
<g style="mix-blend-mode:overlay" opacity="0.33">
<g style="mix-blend-mode:overlay" opacity="0.33">
<g style="mix-blend-mode:overlay" opacity="0.33">
<g style="mix-blend-mode:overlay" opacity="0.33">
<path d="M461.886 57.9041H458.923V65.4197H461.886V57.9041Z" fill="white"/>
</g>
</g>
</g>
</g>
<g style="mix-blend-mode:overlay" opacity="0.33">
<g style="mix-blend-mode:overlay" opacity="0.33">
<g style="mix-blend-mode:overlay" opacity="0.33">
<g style="mix-blend-mode:overlay" opacity="0.33">
<path d="M439.634 101.683H436.671V109.199H439.634V101.683Z" fill="white"/>
</g>
</g>
</g>
</g>
<g style="mix-blend-mode:overlay" opacity="0.33">
<g style="mix-blend-mode:overlay" opacity="0.33">
<g style="mix-blend-mode:overlay" opacity="0.33">
<g style="mix-blend-mode:overlay" opacity="0.33">
<path d="M439.634 116.059H436.671V123.574H439.634V116.059Z" fill="white"/>
</g>
</g>
</g>
</g>
<g style="mix-blend-mode:overlay" opacity="0.33">
<g style="mix-blend-mode:overlay" opacity="0.33">
<g style="mix-blend-mode:overlay" opacity="0.33">
<g style="mix-blend-mode:overlay" opacity="0.33">
<path d="M439.634 130.431H436.671V137.946H439.634V130.431Z" fill="white"/>
</g>
</g>
</g>
</g>
<g style="mix-blend-mode:overlay" opacity="0.33">
<g style="mix-blend-mode:overlay" opacity="0.33">
<g style="mix-blend-mode:overlay" opacity="0.33">
<g style="mix-blend-mode:overlay" opacity="0.33">
<path d="M454.96 101.683H451.997V109.199H454.96V101.683Z" fill="white"/>
</g>
</g>
</g>
</g>
<g style="mix-blend-mode:overlay" opacity="0.33">
<g style="mix-blend-mode:overlay" opacity="0.33">
<g style="mix-blend-mode:overlay" opacity="0.33">
<g style="mix-blend-mode:overlay" opacity="0.33">
<path d="M454.96 116.059H451.997V123.574H454.96V116.059Z" fill="white"/>
</g>
</g>
</g>
</g>
<g style="mix-blend-mode:overlay" opacity="0.33">
<g style="mix-blend-mode:overlay" opacity="0.33">
<g style="mix-blend-mode:overlay" opacity="0.33">
<g style="mix-blend-mode:overlay" opacity="0.33">
<path d="M461.886 101.683H458.923V109.199H461.886V101.683Z" fill="white"/>
</g>
</g>
</g>
</g>
<g style="mix-blend-mode:overlay" opacity="0.33">
<g style="mix-blend-mode:overlay" opacity="0.33">
<g style="mix-blend-mode:overlay" opacity="0.33">
<g style="mix-blend-mode:overlay" opacity="0.33">
<path d="M461.886 143.715H458.923V151.231H461.886V143.715Z" fill="white"/>
</g>
</g>
</g>
</g>
<g style="mix-blend-mode:overlay" opacity="0.33">
<g style="mix-blend-mode:overlay" opacity="0.33">
<g style="mix-blend-mode:overlay" opacity="0.33">
<g style="mix-blend-mode:overlay" opacity="0.33">
<path d="M461.886 158.088H458.923V165.604H461.886V158.088Z" fill="white"/>
</g>
</g>
</g>
</g>
<g style="mix-blend-mode:overlay" opacity="0.33">
<g style="mix-blend-mode:overlay" opacity="0.33">
<g style="mix-blend-mode:overlay" opacity="0.33">
<g style="mix-blend-mode:overlay" opacity="0.33">
<path d="M446.56 143.715H443.597V151.231H446.56V143.715Z" fill="white"/>
</g>
</g>
</g>
</g>
<g style="mix-blend-mode:overlay" opacity="0.33">
<g style="mix-blend-mode:overlay" opacity="0.33">
<g style="mix-blend-mode:overlay" opacity="0.33">
<g style="mix-blend-mode:overlay" opacity="0.33">
<path d="M446.56 158.088H443.597V165.604H446.56V158.088Z" fill="white"/>
</g>
</g>
</g>
</g>
<g style="mix-blend-mode:overlay" opacity="0.33">
<g style="mix-blend-mode:overlay" opacity="0.33">
<g style="mix-blend-mode:overlay" opacity="0.33">
<g style="mix-blend-mode:overlay" opacity="0.33">
<path d="M439.634 143.715H436.671V151.231H439.634V143.715Z" fill="white"/>
</g>
</g>
</g>
</g>
<g style="mix-blend-mode:overlay" opacity="0.33">
<g style="mix-blend-mode:overlay" opacity="0.33">
<g style="mix-blend-mode:overlay" opacity="0.33">
<g style="mix-blend-mode:overlay" opacity="0.33">
<path d="M525.641 75.3482H522.678V82.8638H525.641V75.3482Z" fill="white"/>
</g>
</g>
</g>
</g>
<g style="mix-blend-mode:overlay" opacity="0.33">
<g style="mix-blend-mode:overlay" opacity="0.33">
<g style="mix-blend-mode:overlay" opacity="0.33">
<g style="mix-blend-mode:overlay" opacity="0.33">
<path d="M525.641 89.7216H522.678V97.2372H525.641V89.7216Z" fill="white"/>
</g>
</g>
</g>
</g>
<g style="mix-blend-mode:overlay" opacity="0.33">
<g style="mix-blend-mode:overlay" opacity="0.33">
<g style="mix-blend-mode:overlay" opacity="0.33">
<g style="mix-blend-mode:overlay" opacity="0.33">
<path d="M525.641 104.097H522.678V111.613H525.641V104.097Z" fill="white"/>
</g>
</g>
</g>
</g>
<g style="mix-blend-mode:overlay" opacity="0.33">
<g style="mix-blend-mode:overlay" opacity="0.33">
<g style="mix-blend-mode:overlay" opacity="0.33">
<g style="mix-blend-mode:overlay" opacity="0.33">
<path d="M533.278 118.798H530.315V126.314H533.278V118.798Z" fill="white"/>
</g>
</g>
</g>
</g>
<g style="mix-blend-mode:overlay" opacity="0.33">
<g style="mix-blend-mode:overlay" opacity="0.33">
<g style="mix-blend-mode:overlay" opacity="0.33">
<g style="mix-blend-mode:overlay" opacity="0.33">
<path d="M533.278 133.173H530.315V140.688H533.278V133.173Z" fill="white"/>
</g>
</g>
</g>
</g>
<g style="mix-blend-mode:overlay" opacity="0.33">
<g style="mix-blend-mode:overlay" opacity="0.33">
<g style="mix-blend-mode:overlay" opacity="0.33">
<g style="mix-blend-mode:overlay" opacity="0.33">
<path d="M533.278 147.547H530.315V155.063H533.278V147.547Z" fill="white"/>
</g>
</g>
</g>
</g>
<g style="mix-blend-mode:overlay" opacity="0.33">
<g style="mix-blend-mode:overlay" opacity="0.33">
<g style="mix-blend-mode:overlay" opacity="0.33">
<g style="mix-blend-mode:overlay" opacity="0.33">
<path d="M525.641 118.798H522.678V126.314H525.641V118.798Z" fill="white"/>
</g>
</g>
</g>
</g>
<g style="mix-blend-mode:overlay" opacity="0.33">
<g style="mix-blend-mode:overlay" opacity="0.33">
<g style="mix-blend-mode:overlay" opacity="0.33">
<g style="mix-blend-mode:overlay" opacity="0.33">
<path d="M525.641 133.173H522.678V140.688H525.641V133.173Z" fill="white"/>
</g>
</g>
</g>
</g>
<g style="mix-blend-mode:overlay" opacity="0.33">
<g style="mix-blend-mode:overlay" opacity="0.33">
<g style="mix-blend-mode:overlay" opacity="0.33">
<g style="mix-blend-mode:overlay" opacity="0.33">
<path d="M525.641 147.547H522.678V155.063H525.641V147.547Z" fill="white"/>
</g>
</g>
</g>
</g>
<g style="mix-blend-mode:overlay" opacity="0.33">
<g style="mix-blend-mode:overlay" opacity="0.33">
<g style="mix-blend-mode:overlay" opacity="0.33">
<g style="mix-blend-mode:overlay" opacity="0.33">
<path d="M518.662 118.798H515.699V126.314H518.662V118.798Z" fill="white"/>
</g>
</g>
</g>
</g>
<g style="mix-blend-mode:overlay" opacity="0.33">
<g style="mix-blend-mode:overlay" opacity="0.33">
<g style="mix-blend-mode:overlay" opacity="0.33">
<g style="mix-blend-mode:overlay" opacity="0.33">
<path d="M515.699 30.6246H512.736V38.1402H515.699V30.6246Z" fill="white"/>
</g>
</g>
</g>
</g>
<g style="mix-blend-mode:overlay" opacity="0.33">
<g style="mix-blend-mode:overlay" opacity="0.33">
<g style="mix-blend-mode:overlay" opacity="0.33">
<g style="mix-blend-mode:overlay" opacity="0.33">
<path d="M461.886 44.9991H458.923V52.5146H461.886V44.9991Z" fill="white"/>
</g>
</g>
</g>
</g>
</g>
</g>
<g style="mix-blend-mode:overlay">
<path d="M38.2215 140.009H18.355V176.962H38.2215V140.009Z" fill="#182435"/>
</g>
<g style="mix-blend-mode:overlay">
<path d="M24.4355 161.645H0.368164V176.961H24.4355V161.645Z" fill="#182435"/>
</g>
<g style="mix-blend-mode:overlay">
<path d="M266.453 166.895H208.174V176.961H266.453V166.895Z" fill="#182435"/>
</g>
<g style="mix-blend-mode:overlay">
<path d="M369.779 166.895H311.5V176.961H369.779V166.895Z" fill="#182435"/>
</g>
<g style="mix-blend-mode:overlay">
<path d="M439.124 120.636H401.954V176.961H439.124V120.636Z" fill="#182435"/>
</g>
<g style="mix-blend-mode:overlay">
<path d="M432.676 156.207H390.297V176.961H432.676V156.207Z" fill="#182435"/>
</g>
<g style="mix-blend-mode:overlay">
<path d="M464.622 169.534H437.065V176.962H464.622V169.534Z" fill="#182435"/>
</g>
<g style="mix-blend-mode:overlay">
<path d="M524.315 156.207H479.51V176.961H524.315V156.207Z" fill="#182435"/>
</g>
<g style="mix-blend-mode:overlay">
<path d="M617.798 131.689H598.048V176.961H617.798V131.689Z" fill="#182435"/>
</g>
<g style="mix-blend-mode:overlay">
<path d="M589.32 109.615H566.796V176.962H589.32V109.615Z" fill="#182435"/>
</g>
<g style="mix-blend-mode:overlay">
<path d="M546.344 176.962H578.067L573.119 152.807L546.344 140.948V176.962Z" fill="#182435"/>
</g>
<g style="mix-blend-mode:overlay">
<path d="M659.769 157.399H611.314V176.962H659.769V157.399Z" fill="#182435"/>
</g>
<g style="mix-blend-mode:overlay">
<path d="M670.016 98.8699H641.869V176.962H670.016V98.8699Z" fill="#182435"/>
</g>
<g style="mix-blend-mode:overlay">
<path d="M710.064 162.381H663.432V176.962H710.064V162.381Z" fill="#182435"/>
</g>
<g style="mix-blend-mode:overlay">
<path d="M672.744 97.4404H641.869V100H672.744V97.4404Z" fill="#182435"/>
</g>
<g style="mix-blend-mode:overlay">
<path d="M667.684 86.4214H667.068V102.158H667.684V86.4214Z" fill="#182435"/>
</g>
<g style="mix-blend-mode:overlay">
<path d="M663.568 88.4135H662.951V101.038H663.568V88.4135Z" fill="#182435"/>
</g>
<g style="mix-blend-mode:overlay">
<path d="M680.44 128.289H667.891V164.069H685.788L680.44 128.289Z" fill="#182435"/>
</g>
<g style="mix-blend-mode:overlay">
<g style="mix-blend-mode:overlay">
<g style="mix-blend-mode:overlay">
<path d="M512.555 168.658V176.973H37.5229V168.755C39.7412 168.829 42.1311 169.031 42.8643 165.743C42.9858 165.921 43.1156 166.091 43.2371 166.267C43.0025 165.848 42.7752 165.429 42.4757 164.891C44.6751 164.494 48.3941 165.967 46.9855 161.531C47.7186 159.807 51.9403 162.567 50.5558 158.487C51.5499 158.193 52.5287 157.849 53.4883 157.457C53.8768 157.279 55.1158 156.35 55.1158 155.954C55.1315 154.14 55.0027 152.327 54.9137 150.522C54.6623 145.648 54.7335 141.249 56.8407 136.249C58.0215 133.258 59.3813 130.341 60.9127 127.513C62.6125 131.787 64.7584 135.956 65.8749 140.386C66.6928 143.656 66.1985 147.259 66.231 150.715C66.2467 152.529 65.8508 154.399 66.2069 156.131C66.3608 156.908 67.3705 157.253 68.3497 157.748C69.1251 158.004 69.9321 158.152 70.748 158.188C70.0359 160.454 70.2244 160.682 72.5044 160.835C73.1328 160.876 73.7675 161.054 73.8397 161.5C74.1958 162.568 74.2587 164.106 74.997 164.584C75.8872 165.15 77.3524 164.818 78.7935 164.883C78.4615 165.434 78.2269 165.826 78.1651 165.931C78.5916 166.666 79.0591 167.377 79.5654 168.06C79.8 168.351 80.3268 168.688 80.6127 168.602C80.8279 168.531 81.0229 168.409 81.1819 168.247C81.3408 168.085 81.4591 167.888 81.527 167.671C81.6066 166.699 81.6255 165.724 81.5836 164.749C81.5993 163.883 81.3322 162.993 82.6927 162.629C83.0404 162.539 83.0163 161.009 83.2164 159.811H92.9795V156.694C92.9795 153.108 92.9711 149.53 92.9795 145.944C92.9795 145.564 92.9061 145.053 93.1167 144.811C94.0718 143.669 93.4403 142.803 92.8025 141.839C91.0943 139.273 91.1833 136.528 92.0819 133.565C93.1502 136.819 95.6763 138.099 98.7282 137.014C98.91 136.914 99.0674 136.775 99.1892 136.607C99.3111 136.439 99.3943 136.246 99.433 136.042C99.5383 135.209 99.5925 134.369 99.5954 133.529H103.717C103.83 132.468 103.919 131.602 104.008 130.727C104.761 133.399 106.493 134.079 108.995 133.787C110.566 133.684 112.143 133.673 113.715 133.755C113.513 131.958 113.351 130.484 113.149 128.711C113.662 128.935 114.204 129.085 114.759 129.156C115.439 129.115 116.379 129.1 116.726 128.67C116.888 128.362 116.978 128.022 116.989 127.674C117 127.326 116.933 126.98 116.791 126.663C116.176 125.286 115.325 124.015 114.354 122.331C115.893 123.529 117.026 124.419 118.159 125.302C118.402 125.181 118.645 125.059 118.88 124.938C118.677 123.804 118.475 122.671 118.272 121.513C119.794 122.225 120.595 121.318 121.608 119.974C124.636 115.995 124.441 111.304 124.968 106.746C125.055 105.714 125.223 104.691 125.469 103.685C125.735 107.452 126.211 111.2 126.894 114.914C127.412 117.164 128.877 119.253 130.189 121.245C130.512 121.731 131.864 121.536 132.374 121.609C132.281 122.63 132.289 123.658 132.398 124.678C134.082 124.962 135.121 123.86 135.806 122.362C135.952 122.451 136.106 122.549 136.26 122.646C135.604 123.788 135.014 124.977 134.27 126.054C133.63 126.997 133.128 128.038 134.165 128.758C134.764 129.177 135.858 128.895 136.731 128.904C137.031 128.852 137.326 128.776 137.614 128.678C137.452 130.345 137.306 131.843 137.12 133.729C139.613 133.863 142.113 133.819 144.6 133.599C145.418 133.486 146.024 131.858 146.794 130.855C146.907 131.624 147.028 132.442 147.182 133.51H151.222C151.311 134.767 151.384 135.785 151.456 136.789C156.225 137.703 158.298 136.911 158.451 132.871C159.641 136.231 159.795 139.04 158.063 141.752C157.416 142.764 156.962 143.606 157.634 144.95C158.103 145.892 157.747 147.254 157.747 148.423C157.755 152.065 157.755 155.709 157.755 159.629H168.061C167.729 161.175 167.089 162.479 168.975 163.28C169.42 163.466 169.17 165.336 169.201 166.438C169.274 168.882 169.46 169.029 172.221 168.365V157.51C173.046 157.397 173.67 157.315 174.552 157.196C174.212 155.74 173.766 154.312 173.217 152.922C172.513 151.44 173.014 150.647 174.245 149.935C175.767 149.061 177.232 148.081 178.77 147.239C180.147 146.506 181.442 145.798 180.826 143.879C181.434 143.604 181.944 143.378 182.615 143.07C179.271 131.873 175.941 120.715 172.625 109.594C172.787 109.505 172.948 109.408 173.111 109.319C173.556 109.514 174.001 109.699 174.446 109.894C174.714 110.059 175.016 110.163 175.328 110.2C175.641 110.237 175.958 110.204 176.258 110.106C176.557 110.007 176.831 109.844 177.061 109.629C177.29 109.413 177.47 109.15 177.588 108.858C178.122 107.465 178.964 107.385 180.13 107.45C191.043 108.04 201.964 108.543 212.877 109.247C216.042 109.578 219.185 110.086 222.293 110.768C223.241 110.894 224.122 111.33 224.797 112.008C225.472 112.686 225.904 113.568 226.025 114.517C226.491 117.194 226.74 119.904 226.77 122.621C226.762 126.126 226.43 129.638 226.13 133.137C226.062 133.878 225.82 134.591 225.423 135.22C225.026 135.849 224.486 136.375 223.847 136.756C223.175 137.225 223.219 138.885 223.2 140.018C223.191 140.261 224.293 140.803 224.835 140.739C231.676 139.986 238.581 139.525 245.324 138.225C253.112 136.719 257.743 131.295 258.132 123.329C258.28 117.024 258.113 110.715 257.63 104.426C257.307 98.2572 256.756 92.0959 256.237 85.9355C255.427 76.2772 254.585 66.6192 253.711 56.9615C253.083 49.9665 252.019 42.9473 254.747 36.1314C255.662 33.8483 256.65 31.5892 257.443 29.7113C255.75 28.5373 254.059 27.512 252.52 26.2866C250.044 24.303 247.671 22.1906 244.837 19.7692C249.532 19.7692 253.74 19.5346 257.904 19.8425C259.506 20.0572 261.138 19.8446 262.632 19.2261C264.126 18.6075 265.43 17.6051 266.412 16.3203C272.492 9.26038 280.644 5.33399 289.331 2.45282C292.101 1.52175 294.95 0.857753 298.011 0C298.067 1.02847 298.141 1.78044 298.141 2.53346C298.116 16.1423 298.06 29.7512 298.067 43.3516C298.076 70.8367 298.103 98.319 298.148 125.799C298.156 134.914 298.156 144.03 298.148 153.146C298.148 156.643 298.148 156.643 301.718 156.992V168.528H306.166V70.6677H306.175C306.118 67.2032 306.458 63.811 308.555 60.6292C309.267 59.5526 309.183 57.9491 309.469 56.5897C309.607 55.3973 309.878 54.2242 310.279 53.0927C311.307 50.931 312.571 48.8752 313.735 46.7701C313.872 46.924 314.019 47.078 314.165 47.2235C314.975 46.7802 315.719 46.2241 316.374 45.5719C317.694 43.8156 318.827 41.921 320.123 39.9531C321.847 40.7626 323.466 41.5314 325.143 42.3169C325.771 41.3533 326.325 40.4956 327.053 39.3844C329.23 40.6558 331.347 41.878 333.456 43.1243C337.812 45.7227 342.135 48.3704 346.522 50.9206C347.151 51.1893 347.67 51.6629 347.995 52.2642C348.32 52.8656 348.431 53.5593 348.311 54.2322C348.203 54.803 348.295 55.3937 348.573 55.9042C348.85 56.4148 349.295 56.8138 349.833 57.0338C352.65 58.6445 355.322 60.5234 358.148 62.1258C358.723 62.3986 359.2 62.8436 359.512 63.3991C359.824 63.9547 359.955 64.5934 359.888 65.2269C359.807 76.6902 359.767 88.1538 359.767 99.6177C359.775 115.963 359.805 132.308 359.856 148.653C359.864 154.506 359.864 160.365 359.856 166.229V168.521H364.697C363.895 166.311 365.522 165.202 366.791 163.858C367.188 163.368 367.403 162.756 367.399 162.126C367.455 157.381 367.318 152.621 367.496 147.882C367.561 146.077 366.868 145.527 365.326 145.17C362.792 144.579 362.196 143.046 363.537 140.571C365.326 143.38 366.476 143.599 369.131 141.777C369.56 141.478 369.969 141.149 370.388 140.846C371.844 139.778 373.092 138.637 372.33 136.54C372.282 136.047 372.315 135.549 372.428 135.066C373.667 137.81 373.65 137.616 376.541 136.831C379.69 135.973 381.254 134.305 380.961 130.966C380.996 129.992 381.093 129.021 381.253 128.06C381.366 126.109 382.281 123.955 379.536 122.79C378.908 122.523 378.75 121.162 378.322 120.183C379.587 121.078 380.931 121.856 382.338 122.506C383.834 122.886 385.363 123.122 386.904 123.211C385.795 121.162 384.653 119.486 385.819 117.673C386.466 118.653 386.936 119.978 387.875 120.606C388.963 121.149 390.174 121.402 391.388 121.339C394.117 121.42 396.853 121.339 399.582 121.315C399.695 121.315 399.801 121.202 399.816 121.202C399.484 119.396 399.161 117.623 398.837 115.843L399.465 115.721C399.628 116.158 399.78 116.604 399.935 117.049C400.146 117.977 400.683 118.798 401.448 119.364C402.213 119.93 403.155 120.203 404.104 120.134C405.083 120.166 406.071 120.06 407.036 120.166C408.372 120.32 408.623 119.519 409.341 118.579C411.114 116.296 411.666 114.33 412.894 111.067C413.595 109.205 414.369 107.26 415.08 105.367C416.082 102.701 416.569 100.309 417.297 97.8781C417.954 99.7067 418.056 100.483 418.868 103.103C419.19 104.143 419.218 104.391 419.565 105.451C420.286 107.63 420.948 109.48 421.596 111.683C422.01 113.171 422.518 114.631 423.118 116.054C423.652 117.432 424.401 118.716 425.336 119.859C425.79 120.345 427.068 120.135 427.967 120.143C432.614 120.184 432.922 119.973 434.574 115.755L435.14 115.852C434.826 117.633 434.5 119.406 434.161 121.285C437.569 121.285 441.132 121.43 444.677 121.228C446.765 121.107 447.753 119.52 447.899 117.172C449.26 119.371 448.449 121.057 447.105 122.944C450.48 123.13 453.284 122.774 455.33 119.916C455.456 120.7 455.325 121.504 454.958 122.209C454.59 122.913 454.005 123.48 453.29 123.826C453.054 124 452.86 124.225 452.724 124.484C452.588 124.744 452.513 125.031 452.505 125.324C452.707 128.117 453.104 130.885 453.314 133.679C453.307 134.195 453.482 134.698 453.809 135.098C454.137 135.498 454.595 135.77 455.103 135.864C456.099 136.155 457.046 136.597 458.026 136.941C460.56 137.831 460.754 137.718 461.637 135.168C461.742 135.886 461.728 136.616 461.596 137.33C461.119 138.593 461.71 139.281 462.584 139.96C463.409 140.589 464.188 141.296 465.045 141.879C467.664 143.659 468.745 143.409 470.315 140.727C471.837 142.516 471.351 144.621 469.117 145.034C467.012 145.431 466.478 146.418 466.559 148.474C466.728 152.83 466.543 157.201 466.663 161.557C466.764 162.603 467.164 163.598 467.815 164.423C468.706 165.621 469.96 166.576 469.216 168.507H471.693C472.74 166.775 470.75 164.37 472.704 163.035C472.6 161.4 472.502 159.797 472.405 158.193C472.689 158.12 472.971 158.048 473.255 157.984C473.798 158.85 474.349 159.716 475.069 160.866C475.588 159.134 476.033 157.612 476.51 156C476.777 156.404 477.101 156.883 477.757 157.871C478.647 154.81 479.424 152.147 480.209 149.484C480.274 149.564 480.339 149.646 480.396 149.727C480.833 149.217 481.548 148.771 481.653 148.196C482.414 144.246 482.859 140.222 485.19 136.758C485.295 136.604 485.433 136.361 485.384 136.224C484.162 132.677 485.279 129.35 486.591 126.169C488.85 120.672 488.465 114.88 488.895 109.16C489.046 107.129 489.111 106.437 489.364 104.504C489.655 109.807 489.922 115.101 490.263 120.405C490.41 121.284 490.643 122.146 490.959 122.979C491.692 125.723 493.55 128.177 493.064 131.261C492.991 131.723 493.405 132.241 493.453 132.743C493.599 133.867 493.564 135.007 493.348 136.119C495.501 139.754 496.133 143.939 496.853 148.1C497.12 149.687 497.168 149.695 498.343 149.452C499.12 152.107 499.897 154.746 500.78 157.758C501.37 156.901 501.702 156.406 502.091 155.84C502.56 157.507 502.981 159.022 503.484 160.81C504.124 159.742 504.65 158.859 505.379 157.637C505.81 158.448 506.064 159.343 506.123 160.26C506.182 161.177 506.044 162.096 505.719 162.956C507.622 164.423 506.01 166.648 506.925 168.664L512.555 168.658Z" fill="#182435"/>
</g>
<g style="mix-blend-mode:overlay">
<path d="M598.371 154.456H588.496V177.093H598.371V154.456Z" fill="#182435"/>
</g>
<g style="mix-blend-mode:overlay" opacity="0.5">
<g style="mix-blend-mode:overlay" opacity="0.5">
<g style="mix-blend-mode:overlay" opacity="0.5">
<g style="mix-blend-mode:overlay" opacity="0.5">
<path d="M272.189 38.7497H270.935V45.6913H272.189V38.7497Z" fill="white"/>
</g>
</g>
</g>
</g>
<g style="mix-blend-mode:overlay" opacity="0.5">
<g style="mix-blend-mode:overlay" opacity="0.5">
<g style="mix-blend-mode:overlay" opacity="0.5">
<g style="mix-blend-mode:overlay" opacity="0.5">
<path d="M276.511 38.7497H275.258V45.6913H276.511V38.7497Z" fill="white"/>
</g>
</g>
</g>
</g>
<g style="mix-blend-mode:overlay" opacity="0.5">
<g style="mix-blend-mode:overlay" opacity="0.5">
<g style="mix-blend-mode:overlay" opacity="0.5">
<g style="mix-blend-mode:overlay" opacity="0.5">
<path d="M280.834 38.7497H279.58V45.6913H280.834V38.7497Z" fill="white"/>
</g>
</g>
</g>
</g>
<g style="mix-blend-mode:overlay" opacity="0.5">
<g style="mix-blend-mode:overlay" opacity="0.5">
<g style="mix-blend-mode:overlay" opacity="0.5">
<g style="mix-blend-mode:overlay" opacity="0.5">
<path d="M285.156 38.7497H283.902V45.6913H285.156V38.7497Z" fill="white"/>
</g>
</g>
</g>
</g>
<g style="mix-blend-mode:overlay" opacity="0.5">
<g style="mix-blend-mode:overlay" opacity="0.5">
<g style="mix-blend-mode:overlay" opacity="0.5">
<g style="mix-blend-mode:overlay" opacity="0.5">
<path d="M289.478 38.7497H288.225V45.6913H289.478V38.7497Z" fill="white"/>
</g>
</g>
</g>
</g>
<g style="mix-blend-mode:overlay" opacity="0.5">
<g style="mix-blend-mode:overlay" opacity="0.5">
<g style="mix-blend-mode:overlay" opacity="0.5">
<g style="mix-blend-mode:overlay" opacity="0.5">
<path d="M293.799 38.7497H292.546V45.6913H293.799V38.7497Z" fill="white"/>
</g>
</g>
</g>
</g>
<g style="mix-blend-mode:overlay" opacity="0.5">
<g style="mix-blend-mode:overlay" opacity="0.5">
<g style="mix-blend-mode:overlay" opacity="0.5">
<g style="mix-blend-mode:overlay" opacity="0.5">
<path d="M272.189 48.4143H270.935V55.3559H272.189V48.4143Z" fill="white"/>
</g>
</g>
</g>
</g>
<g style="mix-blend-mode:overlay" opacity="0.5">
<g style="mix-blend-mode:overlay" opacity="0.5">
<g style="mix-blend-mode:overlay" opacity="0.5">
<g style="mix-blend-mode:overlay" opacity="0.5">
<path d="M276.511 48.4143H275.258V55.3559H276.511V48.4143Z" fill="white"/>
</g>
</g>
</g>
</g>
<g style="mix-blend-mode:overlay" opacity="0.5">
<g style="mix-blend-mode:overlay" opacity="0.5">
<g style="mix-blend-mode:overlay" opacity="0.5">
<g style="mix-blend-mode:overlay" opacity="0.5">
<path d="M280.834 48.4143H279.58V55.3559H280.834V48.4143Z" fill="white"/>
</g>
</g>
</g>
</g>
<g style="mix-blend-mode:overlay" opacity="0.5">
<g style="mix-blend-mode:overlay" opacity="0.5">
<g style="mix-blend-mode:overlay" opacity="0.5">
<g style="mix-blend-mode:overlay" opacity="0.5">
<path d="M285.156 48.4143H283.902V55.3559H285.156V48.4143Z" fill="white"/>
</g>
</g>
</g>
</g>
<g style="mix-blend-mode:overlay" opacity="0.5">
<g style="mix-blend-mode:overlay" opacity="0.5">
<g style="mix-blend-mode:overlay" opacity="0.5">
<g style="mix-blend-mode:overlay" opacity="0.5">
<path d="M289.478 48.4143H288.225V55.3559H289.478V48.4143Z" fill="white"/>
</g>
</g>
</g>
</g>
<g style="mix-blend-mode:overlay" opacity="0.5">
<g style="mix-blend-mode:overlay" opacity="0.5">
<g style="mix-blend-mode:overlay" opacity="0.5">
<g style="mix-blend-mode:overlay" opacity="0.5">
<path d="M293.799 48.4143H292.546V55.3559H293.799V48.4143Z" fill="white"/>
</g>
</g>
</g>
</g>
<g style="mix-blend-mode:overlay" opacity="0.5">
<g style="mix-blend-mode:overlay" opacity="0.5">
<g style="mix-blend-mode:overlay" opacity="0.5">
<g style="mix-blend-mode:overlay" opacity="0.5">
<path d="M272.189 58.079H270.935V65.0207H272.189V58.079Z" fill="white"/>
</g>
</g>
</g>
</g>
<g style="mix-blend-mode:overlay" opacity="0.5">
<g style="mix-blend-mode:overlay" opacity="0.5">
<g style="mix-blend-mode:overlay" opacity="0.5">
<g style="mix-blend-mode:overlay" opacity="0.5">
<path d="M276.511 58.079H275.258V65.0207H276.511V58.079Z" fill="white"/>
</g>
</g>
</g>
</g>
<g style="mix-blend-mode:overlay" opacity="0.5">
<g style="mix-blend-mode:overlay" opacity="0.5">
<g style="mix-blend-mode:overlay" opacity="0.5">
<g style="mix-blend-mode:overlay" opacity="0.5">
<path d="M280.834 58.079H279.58V65.0207H280.834V58.079Z" fill="white"/>
</g>
</g>
</g>
</g>
<g style="mix-blend-mode:overlay" opacity="0.5">
<g style="mix-blend-mode:overlay" opacity="0.5">
<g style="mix-blend-mode:overlay" opacity="0.5">
<g style="mix-blend-mode:overlay" opacity="0.5">
<path d="M285.156 58.079H283.902V65.0207H285.156V58.079Z" fill="white"/>
</g>
</g>
</g>
</g>
<g style="mix-blend-mode:overlay" opacity="0.5">
<g style="mix-blend-mode:overlay" opacity="0.5">
<g style="mix-blend-mode:overlay" opacity="0.5">
<g style="mix-blend-mode:overlay" opacity="0.5">
<path d="M289.478 58.079H288.225V65.0207H289.478V58.079Z" fill="white"/>
</g>
</g>
</g>
</g>
<g style="mix-blend-mode:overlay" opacity="0.5">
<g style="mix-blend-mode:overlay" opacity="0.5">
<g style="mix-blend-mode:overlay" opacity="0.5">
<g style="mix-blend-mode:overlay" opacity="0.5">
<path d="M293.799 58.079H292.546V65.0207H293.799V58.079Z" fill="white"/>
</g>
</g>
</g>
</g>
<g style="mix-blend-mode:overlay" opacity="0.5">
<g style="mix-blend-mode:overlay" opacity="0.5">
<g style="mix-blend-mode:overlay" opacity="0.5">
<g style="mix-blend-mode:overlay" opacity="0.5">
<path d="M272.189 67.7437H270.935V74.6853H272.189V67.7437Z" fill="white"/>
</g>
</g>
</g>
</g>
<g style="mix-blend-mode:overlay" opacity="0.5">
<g style="mix-blend-mode:overlay" opacity="0.5">
<g style="mix-blend-mode:overlay" opacity="0.5">
<g style="mix-blend-mode:overlay" opacity="0.5">
<path d="M276.511 67.7437H275.258V74.6853H276.511V67.7437Z" fill="white"/>
</g>
</g>
</g>
</g>
<g style="mix-blend-mode:overlay" opacity="0.5">
<g style="mix-blend-mode:overlay" opacity="0.5">
<g style="mix-blend-mode:overlay" opacity="0.5">
<g style="mix-blend-mode:overlay" opacity="0.5">
<path d="M280.834 67.7437H279.58V74.6853H280.834V67.7437Z" fill="white"/>
</g>
</g>
</g>
</g>
<g style="mix-blend-mode:overlay" opacity="0.5">
<g style="mix-blend-mode:overlay" opacity="0.5">
<g style="mix-blend-mode:overlay" opacity="0.5">
<g style="mix-blend-mode:overlay" opacity="0.5">
<path d="M285.156 67.7437H283.902V74.6853H285.156V67.7437Z" fill="white"/>
</g>
</g>
</g>
</g>
<g style="mix-blend-mode:overlay" opacity="0.5">
<g style="mix-blend-mode:overlay" opacity="0.5">
<g style="mix-blend-mode:overlay" opacity="0.5">
<g style="mix-blend-mode:overlay" opacity="0.5">
<path d="M289.478 67.7437H288.225V74.6853H289.478V67.7437Z" fill="white"/>
</g>
</g>
</g>
</g>
<g style="mix-blend-mode:overlay" opacity="0.5">
<g style="mix-blend-mode:overlay" opacity="0.5">
<g style="mix-blend-mode:overlay" opacity="0.5">
<g style="mix-blend-mode:overlay" opacity="0.5">
<path d="M293.799 67.7437H292.546V74.6853H293.799V67.7437Z" fill="white"/>
</g>
</g>
</g>
</g>
<g style="mix-blend-mode:overlay" opacity="0.5">
<g style="mix-blend-mode:overlay" opacity="0.5">
<g style="mix-blend-mode:overlay" opacity="0.5">
<g style="mix-blend-mode:overlay" opacity="0.5">
<path d="M276.511 77.9445H275.258V84.8861H276.511V77.9445Z" fill="white"/>
</g>
</g>
</g>
</g>
<g style="mix-blend-mode:overlay" opacity="0.5">
<g style="mix-blend-mode:overlay" opacity="0.5">
<g style="mix-blend-mode:overlay" opacity="0.5">
<g style="mix-blend-mode:overlay" opacity="0.5">
<path d="M280.834 77.9445H279.58V84.8861H280.834V77.9445Z" fill="white"/>
</g>
</g>
</g>
</g>
<g style="mix-blend-mode:overlay" opacity="0.5">
<g style="mix-blend-mode:overlay" opacity="0.5">
<g style="mix-blend-mode:overlay" opacity="0.5">
<g style="mix-blend-mode:overlay" opacity="0.5">
<path d="M285.156 77.9445H283.902V84.8861H285.156V77.9445Z" fill="white"/>
</g>
</g>
</g>
</g>
<g style="mix-blend-mode:overlay" opacity="0.5">
<g style="mix-blend-mode:overlay" opacity="0.5">
<g style="mix-blend-mode:overlay" opacity="0.5">
<g style="mix-blend-mode:overlay" opacity="0.5">
<path d="M289.478 77.9445H288.225V84.8861H289.478V77.9445Z" fill="white"/>
</g>
</g>
</g>
</g>
<g style="mix-blend-mode:overlay" opacity="0.5">
<g style="mix-blend-mode:overlay" opacity="0.5">
<g style="mix-blend-mode:overlay" opacity="0.5">
<g style="mix-blend-mode:overlay" opacity="0.5">
<path d="M293.799 77.9445H292.546V84.8861H293.799V77.9445Z" fill="white"/>
</g>
</g>
</g>
</g>
<g style="mix-blend-mode:overlay" opacity="0.33">
<g style="mix-blend-mode:overlay" opacity="0.33">
<g style="mix-blend-mode:overlay" opacity="0.33">
<g style="mix-blend-mode:overlay" opacity="0.33">
<path d="M317.856 65.4783H314.893V72.9939H317.856V65.4783Z" fill="white"/>
</g>
</g>
</g>
</g>
<g style="mix-blend-mode:overlay" opacity="0.33">
<g style="mix-blend-mode:overlay" opacity="0.33">
<g style="mix-blend-mode:overlay" opacity="0.33">
<g style="mix-blend-mode:overlay" opacity="0.33">
<path d="M317.856 79.8527H314.893V87.3683H317.856V79.8527Z" fill="white"/>
</g>
</g>
</g>
</g>
<g style="mix-blend-mode:overlay" opacity="0.33">
<g style="mix-blend-mode:overlay" opacity="0.33">
<g style="mix-blend-mode:overlay" opacity="0.33">
<g style="mix-blend-mode:overlay" opacity="0.33">
<path d="M317.856 94.2261H314.893V101.742H317.856V94.2261Z" fill="white"/>
</g>
</g>
</g>
</g>
<g style="mix-blend-mode:overlay" opacity="0.33">
<g style="mix-blend-mode:overlay" opacity="0.33">
<g style="mix-blend-mode:overlay" opacity="0.33">
<g style="mix-blend-mode:overlay" opacity="0.33">
<path d="M317.856 108.602H314.893V116.117H317.856V108.602Z" fill="white"/>
</g>
</g>
</g>
</g>
<g style="mix-blend-mode:overlay" opacity="0.33">
<g style="mix-blend-mode:overlay" opacity="0.33">
<g style="mix-blend-mode:overlay" opacity="0.33">
<g style="mix-blend-mode:overlay" opacity="0.33">
<path d="M317.856 122.154H314.893V129.669H317.856V122.154Z" fill="white"/>
</g>
</g>
</g>
</g>
<g style="mix-blend-mode:overlay" opacity="0.33">
<g style="mix-blend-mode:overlay" opacity="0.33">
<g style="mix-blend-mode:overlay" opacity="0.33">
<g style="mix-blend-mode:overlay" opacity="0.33">
<path d="M317.856 136.528H314.893V144.044H317.856V136.528Z" fill="white"/>
</g>
</g>
</g>
</g>
<g style="mix-blend-mode:overlay" opacity="0.33">
<g style="mix-blend-mode:overlay" opacity="0.33">
<g style="mix-blend-mode:overlay" opacity="0.33">
<g style="mix-blend-mode:overlay" opacity="0.33">
<path d="M330.559 65.4783H327.596V72.9939H330.559V65.4783Z" fill="white"/>
</g>
</g>
</g>
</g>
<g style="mix-blend-mode:overlay" opacity="0.33">
<g style="mix-blend-mode:overlay" opacity="0.33">
<g style="mix-blend-mode:overlay" opacity="0.33">
<g style="mix-blend-mode:overlay" opacity="0.33">
<path d="M330.559 79.8527H327.596V87.3683H330.559V79.8527Z" fill="white"/>
</g>
</g>
</g>
</g>
<g style="mix-blend-mode:overlay" opacity="0.33">
<g style="mix-blend-mode:overlay" opacity="0.33">
<g style="mix-blend-mode:overlay" opacity="0.33">
<g style="mix-blend-mode:overlay" opacity="0.33">
<path d="M330.559 94.2261H327.596V101.742H330.559V94.2261Z" fill="white"/>
</g>
</g>
</g>
</g>
<g style="mix-blend-mode:overlay" opacity="0.33">
<g style="mix-blend-mode:overlay" opacity="0.33">
<g style="mix-blend-mode:overlay" opacity="0.33">
<g style="mix-blend-mode:overlay" opacity="0.33">
<path d="M330.559 108.602H327.596V116.117H330.559V108.602Z" fill="white"/>
</g>
</g>
</g>
</g>
<g style="mix-blend-mode:overlay" opacity="0.33">
<g style="mix-blend-mode:overlay" opacity="0.33">
<g style="mix-blend-mode:overlay" opacity="0.33">
<g style="mix-blend-mode:overlay" opacity="0.33">
<path d="M330.559 122.154H327.596V129.669H330.559V122.154Z" fill="white"/>
</g>
</g>
</g>
</g>
<g style="mix-blend-mode:overlay" opacity="0.33">
<g style="mix-blend-mode:overlay" opacity="0.33">
<g style="mix-blend-mode:overlay" opacity="0.33">
<g style="mix-blend-mode:overlay" opacity="0.33">
<path d="M330.559 136.528H327.596V144.044H330.559V136.528Z" fill="white"/>
</g>
</g>
</g>
</g>
<g style="mix-blend-mode:overlay" opacity="0.33">
<g style="mix-blend-mode:overlay" opacity="0.33">
<g style="mix-blend-mode:overlay" opacity="0.33">
<g style="mix-blend-mode:overlay" opacity="0.33">
<path d="M575.136 118.059H573.188V123H575.136V118.059Z" fill="white"/>
</g>
</g>
</g>
</g>
<g style="mix-blend-mode:overlay" opacity="0.33">
<g style="mix-blend-mode:overlay" opacity="0.33">
<g style="mix-blend-mode:overlay" opacity="0.33">
<g style="mix-blend-mode:overlay" opacity="0.33">
<path d="M575.136 127.51H573.188V132.451H575.136V127.51Z" fill="white"/>
</g>
</g>
</g>
</g>
<g style="mix-blend-mode:overlay" opacity="0.33">
<g style="mix-blend-mode:overlay" opacity="0.33">
<g style="mix-blend-mode:overlay" opacity="0.33">
<g style="mix-blend-mode:overlay" opacity="0.33">
<path d="M575.136 136.961H573.188V141.902H575.136V136.961Z" fill="white"/>
</g>
</g>
</g>
</g>
<g style="mix-blend-mode:overlay" opacity="0.33">
<g style="mix-blend-mode:overlay" opacity="0.33">
<g style="mix-blend-mode:overlay" opacity="0.33">
<g style="mix-blend-mode:overlay" opacity="0.33">
<path d="M575.136 146.412H573.188V151.353H575.136V146.412Z" fill="white"/>
</g>
</g>
</g>
</g>
<g style="mix-blend-mode:overlay" opacity="0.33">
<g style="mix-blend-mode:overlay" opacity="0.33">
<g style="mix-blend-mode:overlay" opacity="0.33">
<g style="mix-blend-mode:overlay" opacity="0.33">
<path d="M575.136 155.322H573.188V160.264H575.136V155.322Z" fill="white"/>
</g>
</g>
</g>
</g>
<g style="mix-blend-mode:overlay" opacity="0.33">
<g style="mix-blend-mode:overlay" opacity="0.33">
<g style="mix-blend-mode:overlay" opacity="0.33">
<g style="mix-blend-mode:overlay" opacity="0.33">
<path d="M575.136 164.773H573.188V169.715H575.136V164.773Z" fill="white"/>
</g>
</g>
</g>
</g>
<g style="mix-blend-mode:overlay" opacity="0.33">
<g style="mix-blend-mode:overlay" opacity="0.33">
<g style="mix-blend-mode:overlay" opacity="0.33">
<g style="mix-blend-mode:overlay" opacity="0.33">
<path d="M583.489 118.059H581.54V123H583.489V118.059Z" fill="white"/>
</g>
</g>
</g>
</g>
<g style="mix-blend-mode:overlay" opacity="0.33">
<g style="mix-blend-mode:overlay" opacity="0.33">
<g style="mix-blend-mode:overlay" opacity="0.33">
<g style="mix-blend-mode:overlay" opacity="0.33">
<path d="M583.489 127.51H581.54V132.451H583.489V127.51Z" fill="white"/>
</g>
</g>
</g>
</g>
<g style="mix-blend-mode:overlay" opacity="0.33">
<g style="mix-blend-mode:overlay" opacity="0.33">
<g style="mix-blend-mode:overlay" opacity="0.33">
<g style="mix-blend-mode:overlay" opacity="0.33">
<path d="M583.489 136.961H581.54V141.902H583.489V136.961Z" fill="white"/>
</g>
</g>
</g>
</g>
<g style="mix-blend-mode:overlay" opacity="0.33">
<g style="mix-blend-mode:overlay" opacity="0.33">
<g style="mix-blend-mode:overlay" opacity="0.33">
<g style="mix-blend-mode:overlay" opacity="0.33">
<path d="M583.489 146.412H581.54V151.353H583.489V146.412Z" fill="white"/>
</g>
</g>
</g>
</g>
<g style="mix-blend-mode:overlay" opacity="0.33">
<g style="mix-blend-mode:overlay" opacity="0.33">
<g style="mix-blend-mode:overlay" opacity="0.33">
<g style="mix-blend-mode:overlay" opacity="0.33">
<path d="M583.489 155.322H581.54V160.264H583.489V155.322Z" fill="white"/>
</g>
</g>
</g>
</g>
<g style="mix-blend-mode:overlay" opacity="0.33">
<g style="mix-blend-mode:overlay" opacity="0.33">
<g style="mix-blend-mode:overlay" opacity="0.33">
<g style="mix-blend-mode:overlay" opacity="0.33">
<path d="M583.489 164.773H581.54V169.715H583.489V164.773Z" fill="white"/>
</g>
</g>
</g>
</g>
<g style="mix-blend-mode:overlay" opacity="0.33">
<g style="mix-blend-mode:overlay" opacity="0.33">
<g style="mix-blend-mode:overlay" opacity="0.33">
<g style="mix-blend-mode:overlay" opacity="0.33">
<path d="M648.434 102.451H646.409V107.156H648.434V102.451Z" fill="white"/>
</g>
</g>
</g>
</g>
<g style="mix-blend-mode:overlay" opacity="0.33">
<g style="mix-blend-mode:overlay" opacity="0.33">
<g style="mix-blend-mode:overlay" opacity="0.33">
<g style="mix-blend-mode:overlay" opacity="0.33">
<path d="M648.434 110.047H646.409V114.752H648.434V110.047Z" fill="white"/>
</g>
</g>
</g>
</g>
<g style="mix-blend-mode:overlay" opacity="0.33">
<g style="mix-blend-mode:overlay" opacity="0.33">
<g style="mix-blend-mode:overlay" opacity="0.33">
<g style="mix-blend-mode:overlay" opacity="0.33">
<path d="M653.628 102.451H651.604V107.156H653.628V102.451Z" fill="white"/>
</g>
</g>
</g>
</g>
</g>
</g>
</g>
</g>
</svg>
